{"title":"Entropy (1999) DVDRip XviD AC3 peaSoup","uid":8925649,"size":1732752200,"categoryP":"video","categoryS":"movies","magnet":"?xt=urn:btih:b73884f67ac7c166c4a41b672acaa78d4584be8b&amp;dn=Entropy+%281999%29+DVDRip+XviD+AC3+peaSoup&amp;tr=udp%3A%2F%2Ftracker.openbittorrent.com%3A80&amp;tr=udp%3A%2F%2Fopen.demonii.com%3A1337&amp;tr=udp%3A%2F%2Ftracker.coppersurfer.tk%3A6969&amp;tr=udp%3A%2F%2Fexodus.desync.com%3A6969","seeders":2,"leechers":0,"uploader":"peaSoup","files":-1,"time":1379359637,"description":"Storyline\n\nStephen Dorff narrates this tale about how his life goes astray as his character attempts to strike a balance between the demands of directing his first film and the pressures of his new romance with a model. U2's Bono plays a role in this film as both himself and Dorff's character's concience.                                     &lt;a href=&quot; http://imageshack.us/a/img809/2226/2vzy.jpg&quot; rel=&quot;nofollow&quot; target=&quot;_NEW&quot;&gt; http://imageshack.us/a/img809/2226/2vzy.jpg&lt;/a&gt;                                         &lt;a href=&quot; http://imageshack.us/a/img826/9049/zfmx.jpg&quot; rel=&quot;nofollow&quot; target=&quot;_NEW&quot;&gt; http://imageshack.us/a/img826/9049/zfmx.jpg&lt;/a&gt;                                         &lt;a href=&quot; http://imageshack.us/a/img703/1386/ku4i.jpg&quot; rel=&quot;nofollow&quot; target=&quot;_NEW&quot;&gt; http://imageshack.us/a/img703/1386/ku4i.jpg&lt;/a&gt;                                         &lt;a href=&quot; http://imageshack.us/a/img9/3148/a8gt.jpg&quot; rel=&quot;nofollow&quot; target=&quot;_NEW&quot;&gt; http://imageshack.us/a/img9/3148/a8gt.jpg&lt;/a&gt;                                           &lt;a href=&quot; http://imageshack.us/a/img833/8762/bi7p.jpg&quot; rel=&quot;nofollow&quot; target=&quot;_NEW&quot;&gt; http://imageshack.us/a/img833/8762/bi7p.jpg&lt;/a&gt;                                          Format                                   : AVI\nFormat/Info                              : Audio Video Interleave\nFormat profile                           : OpenDML\nFile size                                : 1.61 GiB\nDuration                                 : 1h 45mn\nOverall bit rate                         : 2 194 Kbps\nMovie name                               : Entropy (1999) DVDRip XviD AC3 peaSoup\nWriting application                      : Lavf53.21.0\nOriginal source form/Name                : CCD9234\n\nVideo\nID                                       : 0\nFormat                                   : MPEG-4 Visual\nFormat profile                           : Advanced Simple@L5\nFormat settings, BVOP                    : 2\nFormat settings, QPel                    : No\nFormat settings, GMC                     : No warppoints\nFormat settings, Matrix                  : Default (H.263)\nMuxing mode                              : Packed bitstream\nCodec ID                                 : XVID\nCodec ID/Hint                            : XviD\nDuration                                 : 1h 45mn\nBit rate                                 : 1 990 Kbps\nWidth                                    : 720 pixels\nHeight                                   : 554 pixels\nDisplay aspect ratio                     : 4:3\nFrame rate                               : 25.000 fps\nColor space                              : YUV\nChroma subsampling                       : 4:2:0\nBit depth                                : 8 bits\nScan type                                : Progressive\nCompression mode                         : Lossy\nBits/(Pixel*Frame)                       : 0.200\nStream size                              : 1.46 GiB (91%)\nWriting library                          : XviD 1.2.1 (UTC 2008-12-04)\n\nAudio\nID                                       : 1\nFormat                                   : AC-3\nFormat/Info                              : Audio Coding 3\nMode extension                           : CM (complete main)\nFormat settings, Endianness              : Big\nCodec ID                                 : 2000\nDuration                                 : 1h 45mn\nBit rate mode                            : Constant\nBit rate                                 : 192 Kbps\nChannel(s)                               : 2 channels\nChannel positions                        : Front: L R\nSampling rate                            : 48.0 KHz\nBit depth                                : 16 bits\nCompression mode                         : Lossy\nStream size                              : 145 MiB (9%)\nAlignment                                : Aligned on interleaves\nInterleave, duration                     : 32 ms (0.80 video frame)\n\n","torrent":{"xt":"urn:btih:b73884f67ac7c166c4a41b672acaa78d4584be8b","amp;dn":"Entropy+%281999%29+DVDRip+XviD+AC3+peaSoup","amp;tr":["udp%3A%2F%2Ftracker.openbittorrent.com%3A80","udp%3A%2F%2Fopen.demonii.com%3A1337","udp%3A%2F%2Ftracker.coppersurfer.tk%3A6969","udp%3A%2F%2Fexodus.desync.com%3A6969"],"infoHash":"b73884f67ac7c166c4a41b672acaa78d4584be8b","infoHashBuffer":{"type":"Buffer","data":[183,56,132,246,122,199,193,102,196,164,27,103,42,202,167,141,69,132,190,139]},"announce":[],"urlList":[]}}